<?xml version="1.0" encoding="UTF-8"?>
<!DOCTYPE svg PUBLIC "-//W3C//DTD SVG 1.1//EN" "http://www.w3.org/Graphics/SVG/1.1/DTD/svg11.dtd">
<svg xmlns="http://www.w3.org/2000/svg" version="1.1" width="350px" height="160px" style="shape-rendering:geometricPrecision; text-rendering:geometricPrecision; image-rendering:optimizeQuality; fill-rule:evenodd; clip-rule:evenodd" xmlns:xlink="http://www.w3.org/1999/xlink">
<g><path style="opacity:0.584" fill="#510c0c" d="M 344.5,1.5 C 230.833,1.5 117.167,1.5 3.5,1.5C 3.5,53.1667 3.5,104.833 3.5,156.5C 2.50108,104.669 2.16775,52.6693 2.5,0.5C 116.668,0.167157 230.668,0.500491 344.5,1.5 Z"/></g>
<g><path style="opacity:0.995" fill="#510c0c" d="M 344.5,1.5 C 345.499,52.9973 345.832,104.664 345.5,156.5C 231.5,156.5 117.5,156.5 3.5,156.5C 3.5,104.833 3.5,53.1667 3.5,1.5C 117.167,1.5 230.833,1.5 344.5,1.5 Z M 17.5,23.5 C 26.1667,23.5 34.8333,23.5 43.5,23.5C 45.4955,38.6447 48.3288,53.6447 52,68.5C 55.4854,54.2236 58.8187,39.8903 62,25.5C 70.0242,23.7473 78.1908,23.0806 86.5,23.5C 86.5,24.8333 86.5,26.1667 86.5,27.5C 85.5303,59.6906 86.0303,92.0239 88,124.5C 89.3158,121.312 89.8158,117.978 89.5,114.5C 90.2186,112.236 90.552,109.903 90.5,107.5C 94.8233,79.8918 98.8233,52.2251 102.5,24.5C 111.416,23.5289 120.416,23.1956 129.5,23.5C 133.648,52.8726 137.982,82.2059 142.5,111.5C 142.298,113.989 142.798,116.323 144,118.5C 144.499,114.179 144.666,109.846 144.5,105.5C 144.5,78.1667 144.5,50.8333 144.5,23.5C 156.886,23.1057 169.22,23.6057 181.5,25C 186.377,28.3761 190.377,32.5428 193.5,37.5C 195.17,40.105 195.504,40.105 194.5,37.5C 194.46,32.8075 194.127,28.1408 193.5,23.5C 200.588,23.2045 207.588,23.5379 214.5,24.5C 216.261,42.9917 219.094,61.325 223,79.5C 226.716,61.204 230.216,42.8707 233.5,24.5C 252.477,23.5646 271.477,23.2312 290.5,23.5C 290.5,30.8333 290.5,38.1667 290.5,45.5C 285.167,45.5 279.833,45.5 274.5,45.5C 273.508,52.9818 273.175,60.6484 273.5,68.5C 278.463,69.254 283.463,69.5874 288.5,69.5C 288.5,76.8333 288.5,84.1667 288.5,91.5C 286.784,91.6287 285.117,91.962 283.5,92.5C 280.167,92.5 276.833,92.5 273.5,92.5C 273.175,99.6866 273.509,106.687 274.5,113.5C 279.833,113.5 285.167,113.5 290.5,113.5C 290.5,121.167 290.5,128.833 290.5,136.5C 278.494,137.265 266.494,136.932 254.5,135.5C 254.5,134.167 254.5,132.833 254.5,131.5C 254.667,98.4983 254.5,65.4983 254,32.5C 253.667,31.5 253.333,30.5 253,29.5C 251.722,32.7206 250.889,36.054 250.5,39.5C 244.85,71.3993 239.85,103.399 235.5,135.5C 227.586,136.467 219.586,136.801 211.5,136.5C 211.737,135.209 211.404,134.209 210.5,133.5C 208.003,112.688 204.67,92.0213 200.5,71.5C 199.833,66.1667 199.167,66.1667 198.5,71.5C 195.685,79.9628 191.685,87.7961 186.5,95C 191.376,108.342 195.709,121.842 199.5,135.5C 199.167,136.167 198.833,136.833 198.5,137.5C 192.138,137.031 185.805,136.364 179.5,135.5C 176.375,123.959 172.542,112.626 168,101.5C 167.505,103.473 167.338,105.473 167.5,107.5C 166.506,116.986 166.173,126.652 166.5,136.5C 165.209,136.263 164.209,136.596 163.5,137.5C 151.974,137.2 140.474,136.534 129,135.5C 127.674,135.245 126.674,134.578 126,133.5C 125.774,130.905 125.274,128.405 124.5,126C 119.177,125.501 113.844,125.334 108.5,125.5C 108.196,128.579 107.196,131.413 105.5,134C 93.2021,135.284 80.8688,135.784 68.5,135.5C 68.6665,123.495 68.4999,111.495 68,99.5C 67.6667,98.1667 67.3333,96.8333 67,95.5C 65.6038,98.298 64.7705,101.298 64.5,104.5C 62.9697,114.623 60.8031,124.623 58,134.5C 54.5582,136.733 50.8915,137.067 47,135.5C 44.3054,124.525 41.8054,113.525 39.5,102.5C 39.6068,100.621 39.1068,100.288 38,101.5C 37.501,105.821 37.3343,110.154 37.5,114.5C 37.5,121.5 37.5,128.5 37.5,135.5C 30.8333,135.5 24.1667,135.5 17.5,135.5C 17.5,98.1667 17.5,60.8333 17.5,23.5 Z M 297.5,23.5 C 303.833,23.5 310.167,23.5 316.5,23.5C 316.5,53.5 316.5,83.5 316.5,113.5C 322.167,113.5 327.833,113.5 333.5,113.5C 333.5,121.167 333.5,128.833 333.5,136.5C 321.5,136.5 309.5,136.5 297.5,136.5C 297.5,98.8333 297.5,61.1667 297.5,23.5 Z"/></g>
<g><path style="opacity:0.624" fill="#510c0c" d="M 129.5,23.5 C 120.416,23.1956 111.416,23.5289 102.5,24.5C 106.614,23.1739 111.114,22.5073 116,22.5C 120.68,22.5009 125.18,22.8342 129.5,23.5 Z"/></g>
<g><path style="opacity:0.624" fill="#510c0c" d="M 193.5,23.5 C 196.817,22.8348 200.317,22.5014 204,22.5C 207.902,22.5123 211.402,23.179 214.5,24.5C 207.588,23.5379 200.588,23.2045 193.5,23.5 Z"/></g>
<g><path style="opacity:0.642" fill="#510c0c" d="M 254.5,131.5 C 253.473,100.82 252.139,70.1538 250.5,39.5C 250.889,36.054 251.722,32.7206 253,29.5C 253.333,30.5 253.667,31.5 254,32.5C 254.5,65.4983 254.667,98.4983 254.5,131.5 Z"/></g>
<g><path style="opacity:0.122" fill="#510c0c" d="M 193.5,37.5 C 193.833,37.5 194.167,37.5 194.5,37.5C 195.504,40.105 195.17,40.105 193.5,37.5 Z"/></g>
<g><path style="opacity:0.989" fill="#510c0c" d="M 166.5,43.5 C 175.397,45.9075 179.397,51.7408 178.5,61C 179.405,69.7194 175.739,75.2194 167.5,77.5C 166.674,66.1872 166.34,54.8539 166.5,43.5 Z"/></g>
<g><path style="opacity:0.559" fill="#510c0c" d="M 86.5,27.5 C 87.6172,53.8192 88.2839,80.1525 88.5,106.5C 88.1936,109.385 88.5269,112.052 89.5,114.5C 89.8158,117.978 89.3158,121.312 88,124.5C 86.0303,92.0239 85.5303,59.6906 86.5,27.5 Z"/></g>
<g><path style="opacity:0.959" fill="#510c0c" d="M 274.5,45.5 C 274.5,52.8333 274.5,60.1667 274.5,67.5C 279.833,67.5 285.167,67.5 290.5,67.5C 290.935,75.7426 290.269,83.7426 288.5,91.5C 288.5,84.1667 288.5,76.8333 288.5,69.5C 283.463,69.5874 278.463,69.254 273.5,68.5C 273.175,60.6484 273.508,52.9818 274.5,45.5 Z"/></g>
<g><path style="opacity:0.11" fill="#510c0c" d="M 116.5,71.5 C 115.833,72.8333 115.167,74.1667 114.5,75.5C 114.215,73.712 114.548,72.0453 115.5,70.5C 116.107,70.6236 116.44,70.9569 116.5,71.5 Z"/></g>
<g><path style="opacity:0.624" fill="#510c0c" d="M 200.5,71.5 C 199.833,71.5 199.167,71.5 198.5,71.5C 199.167,66.1667 199.833,66.1667 200.5,71.5 Z"/></g>
<g><path style="opacity:0.973" fill="#510c0c" d="M 116.5,71.5 C 119.4,81.9985 121.4,92.6652 122.5,103.5C 118.209,105.14 114.209,104.64 110.5,102C 112.435,93.293 113.768,84.4597 114.5,75.5C 115.167,74.1667 115.833,72.8333 116.5,71.5 Z"/></g>
<g><path style="opacity:0.376" fill="#510c0c" d="M 283.5,92.5 C 280.713,93.4767 277.713,93.81 274.5,93.5C 274.5,100.167 274.5,106.833 274.5,113.5C 273.509,106.687 273.175,99.6866 273.5,92.5C 276.833,92.5 280.167,92.5 283.5,92.5 Z"/></g>
<g><path style="opacity:0.538" fill="#510c0c" d="M 68.5,135.5 C 68.0726,125.057 66.7393,114.724 64.5,104.5C 64.7705,101.298 65.6038,98.298 67,95.5C 67.3333,96.8333 67.6667,98.1667 68,99.5C 68.4999,111.495 68.6665,123.495 68.5,135.5 Z"/></g>
<g><path style="opacity:0.376" fill="#510c0c" d="M 144.5,105.5 C 144.666,109.846 144.499,114.179 144,118.5C 142.798,116.323 142.298,113.989 142.5,111.5C 143.167,109.5 143.833,107.5 144.5,105.5 Z"/></g>
<g><path style="opacity:0.376" fill="#510c0c" d="M 39.5,102.5 C 38.8333,106.5 38.1667,110.5 37.5,114.5C 37.3343,110.154 37.501,105.821 38,101.5C 39.1068,100.288 39.6068,100.621 39.5,102.5 Z"/></g>
<g><path style="opacity:0.824" fill="#510c0c" d="M 88.5,106.5 C 89.1667,106.833 89.8333,107.167 90.5,107.5C 90.552,109.903 90.2186,112.236 89.5,114.5C 88.5269,112.052 88.1936,109.385 88.5,106.5 Z"/></g>
<g><path style="opacity:0.376" fill="#510c0c" d="M 167.5,107.5 C 167.5,117.5 167.5,127.5 167.5,137.5C 166.167,137.5 164.833,137.5 163.5,137.5C 164.209,136.596 165.209,136.263 166.5,136.5C 166.173,126.652 166.506,116.986 167.5,107.5 Z"/></g>
<g><path style="opacity:0.624" fill="#510c0c" d="M 17.5,23.5 C 17.5,60.8333 17.5,98.1667 17.5,135.5C 24.1667,135.5 30.8333,135.5 37.5,135.5C 30.6866,136.491 23.6866,136.825 16.5,136.5C 16.1682,98.663 16.5015,60.9963 17.5,23.5 Z"/></g>
<g><path style="opacity:0.306" fill="#510c0c" d="M 199.5,135.5 C 200.757,136.623 200.424,137.289 198.5,137.5C 198.833,136.833 199.167,136.167 199.5,135.5 Z"/></g>
<g><path style="opacity:0.122" fill="#510c0c" d="M 210.5,133.5 C 211.404,134.209 211.737,135.209 211.5,136.5C 219.586,136.801 227.586,136.467 235.5,135.5C 227.567,137.468 219.234,138.135 210.5,137.5C 210.5,136.167 210.5,134.833 210.5,133.5 Z"/></g>
</svg>
